<svg xmlns:inkscape="http://www.inkscape.org/namespaces/inkscape" xmlns:sodipodi="http://sodipodi.sourceforge.net/DTD/sodipodi-0.dtd" xmlns="http://www.w3.org/2000/svg" xmlns:svg="http://www.w3.org/2000/svg" version="1.1" id="svg5" inkscape:version="1.1.1 (3bf5ae0d25, 2021-09-20)" sodipodi:docname="white.svg" viewBox="21.77 48.94 127.08 39.77">
  <sodipodi:namedview id="namedview7" pagecolor="#ffffff" bordercolor="#cccccc" borderopacity="1" inkscape:pageshadow="0" inkscape:pageopacity="1" inkscape:pagecheckerboard="true" inkscape:document-units="mm" showgrid="false" inkscape:zoom="2.8284271" inkscape:cx="239.88597" inkscape:cy="277.36263" inkscape:window-width="1920" inkscape:window-height="1001" inkscape:window-x="-9" inkscape:window-y="-9" inkscape:window-maximized="1" inkscape:current-layer="layer1" inkscape:snap-nodes="true"/>
  <defs id="defs2"/>
  <g inkscape:label="Layer 1" inkscape:groupmode="layer" id="layer1">
    <text xml:space="preserve" style="font-style:normal;font-weight:normal;font-size:22.5778px;line-height:1.25;font-family:sans-serif;fill:#ffffff;fill-opacity:1;stroke:none;stroke-width:0.264583" x="59.739475" y="72.238297" id="text1034"><tspan sodipodi:role="line" style="font-style:normal;font-variant:normal;font-weight:normal;font-stretch:normal;font-size:22.5778px;font-family:'Monotype Corsiva';-inkscape-font-specification:'Monotype Corsiva';stroke-width:0.264583;fill:#ffffff" x="59.739475" y="72.238297" id="tspan2392">BONITOS</tspan></text>
    <text xml:space="preserve" style="font-style:normal;font-weight:normal;font-size:7.05556px;line-height:1.25;font-family:sans-serif;fill:#ffffff;fill-opacity:1;stroke:none;stroke-width:0.264583" x="61.890285" y="80.048187" id="text30772"><tspan sodipodi:role="line" id="tspan30770" style="font-style:normal;font-variant:normal;font-weight:normal;font-stretch:normal;font-size:7.05556px;font-family:'Myriad Arabic';-inkscape-font-specification:'Myriad Arabic';fill:#ffffff;stroke-width:0.264583" x="61.890285" y="80.048187">YOU DESERVE DELICIOUS FOOD</tspan></text>
    <path class="cls-1" d="m 22.48669,80.238179 q 8.035148,-0.01661 16.067924,0 a 0.58359802,0.58359802 0 0 1 0.581226,0.578853 c 0,0.865908 -0.365342,2.559766 -2.322531,2.559766 H 24.230367 c -1.957189,0 -2.320159,-1.693858 -2.320159,-2.559766 A 0.58122568,0.58122568 0 0 1 22.48669,80.238179 Z M 35.97587,66.241316 c 4.467135,3.439907 6.061354,2.082922 8.621119,0.820832 1.961933,-0.965546 2.728203,-1.881273 5.110041,-0.915726 V 62.640089 H 35.980615 v 3.601227 z m 8.720757,-4.656923 0.896749,-3.32129 a 0.8113436,0.8113436 0 0 1 0.431768,-0.54564 l 3.672397,-1.876528 a 0.82557769,0.82557769 0 0 1 0.806599,1.440015 l -3.387716,1.722326 -0.711705,2.581117 0.06406,-0.199277 h 3.914377 a 0.52666163,0.52666163 0 0 1 0.517172,0.519545 v 0 6.704259 c 0,4.353263 -2.37235,7.731488 -6.818133,8.06599 v 6.125406 h 3.451769 c 0.291798,0 0.524289,0.460236 0.524289,0.749663 0,0.289426 -0.237235,0.752035 -0.524289,0.752035 h -7.534583 l 0.113873,-0.12099 a 4.5240709,4.5240709 0 0 0 0.846929,-1.380708 h 0.896748 v -6.106428 c -0.237235,0 -0.47447,-0.02847 -0.711705,-0.05456 a 3.5585246,3.5585246 0 0 0 -0.251469,-0.609694 3.2026721,3.2026721 0 0 0 0.298916,-0.448374 3.3592472,3.3592472 0 0 0 0.237235,-2.668894 5.5607877,5.5607877 0 0 0 -1.1411,-1.980912 c -1.086537,-1.2526 -3.001023,-2.528924 -5.567905,-3.226395 v -5.800395 a 0.52428928,0.52428928 0 0 1 0.524289,-0.52429 h 9.51075 l -0.05931,0.199278 z m -6.89642,13.553234 H 23.43563 a 1.6606448,1.6606448 0 0 1 -1.660645,-1.660645 v 0 c 0,-2.37235 4.709114,-4.082814 8.666193,-4.120771 7.781307,-0.07829 11.273406,5.779044 7.354284,5.779044 z m -3.32129,-3.828972 a 0.89437583,0.89437583 0 1 1 -0.892003,0.894375 0.89437583,0.89437583 0 0 1 0.892003,-0.894375 z m -7.783679,0.06405 a 0.89437583,0.89437583 0 1 1 -0.887258,0.894376 0.89437583,0.89437583 0 0 1 0.892003,-0.894376 z m 3.862186,-0.851676 a 0.89437583,0.89437583 0 1 1 -0.894376,0.894376 0.89437583,0.89437583 0 0 1 0.894376,-0.894376 z m 8.535714,6.894049 a 0.26807551,0.26807551 0 0 1 0.03795,0.132851 c 0,0.03084 0,0.06406 0,0.09727 0,0.03321 0,0.06642 0,0.09489 a 0.27756492,0.27756492 0 0 1 -0.03795,0.135223 c -0.13048,0.574109 -0.659514,1.328516 -2.282201,1.328516 h -12.58057 c -1.622688,0 -2.149349,-0.752034 -2.2822,-1.328516 a 0.27756492,0.27756492 0 0 1 -0.03796,-0.135223 c 0,-0.02847 0,-0.06168 0,-0.09489 a 0.68323671,0.68323671 0 0 1 0,-0.09727 0.26807551,0.26807551 0 0 1 0.03796,-0.132851 c 0.132851,-0.576481 0.661885,-1.328516 2.2822,-1.328516 h 6.519217 l 2.41268,2.481478 2.372349,-2.481478 h 1.278696 c 1.622688,0 2.151722,0.752035 2.282201,1.328516 z" id="path79184" style="fill-rule:evenodd;stroke-width:0.237235;fill:#ffffff"/>
    <path style="fill:#ffffff;stroke:#000000;stroke-width:1.85331;stroke-linecap:round;stroke-linejoin:round;stroke-miterlimit:4;stroke-dasharray:none;stroke-opacity:1;fill-opacity:0.99000001" d="m 56.471658,49.988987 v 37.66035" id="path81690"/>
    <path style="fill:#ffffff;fill-opacity:0.99;stroke:#000000;stroke-width:0.32503937;stroke-linecap:round;stroke-linejoin:miter;stroke-miterlimit:4;stroke-dasharray:none;stroke-dashoffset:0;stroke-opacity:1" d="m 212.04365,334.34455 c -0.82042,-0.43251 -1.34237,-0.96687 -1.69882,-1.7392 -0.31557,-0.68374 -0.32648,-3.07785 -0.33023,-72.43993 -0.003,-64.45721 0.024,-71.79948 0.27066,-72.39005 0.75469,-1.80669 2.50679,-2.61119 4.35697,-2.00058 0.81366,0.26853 1.8272,1.37284 2.07325,2.25891 0.26917,0.96935 0.26365,143.05562 -0.006,144.04132 -0.55742,2.04068 -2.92034,3.18993 -4.66623,2.26953 z" id="path85960" transform="scale(0.26458333)"/>
  </g>
</svg>