<svg xmlns:inkscape="http://www.inkscape.org/namespaces/inkscape" xmlns:sodipodi="http://sodipodi.sourceforge.net/DTD/sodipodi-0.dtd" xmlns="http://www.w3.org/2000/svg" xmlns:svg="http://www.w3.org/2000/svg" version="1.1" id="svg5" inkscape:version="1.1.1 (3bf5ae0d25, 2021-09-20)" sodipodi:docname="this.svg" viewBox="28.91 51.17 119.58 29">
  <sodipodi:namedview id="namedview7" pagecolor="#ffffff" bordercolor="#cccccc" borderopacity="1" inkscape:pageshadow="0" inkscape:pageopacity="1" inkscape:pagecheckerboard="true" inkscape:document-units="mm" showgrid="false" inkscape:zoom="2.8934905" inkscape:cx="341.97451" inkscape:cy="236.56549" inkscape:window-width="1920" inkscape:window-height="1001" inkscape:window-x="-9" inkscape:window-y="-9" inkscape:window-maximized="1" inkscape:current-layer="layer1" inkscape:snap-nodes="true"/>
  <defs id="defs2"/>
  <g inkscape:label="Layer 1" inkscape:groupmode="layer" id="layer1">
    <text xml:space="preserve" style="font-style:normal;font-weight:normal;font-size:22.5778px;line-height:1.25;font-family:sans-serif;fill:#ffffff;fill-opacity:1;stroke:none;stroke-width:0.264583" x="59.373711" y="72.969826" id="text1034"><tspan sodipodi:role="line" style="font-style:normal;font-variant:normal;font-weight:normal;font-stretch:normal;font-size:22.5778px;font-family:'Monotype Corsiva';-inkscape-font-specification:'Monotype Corsiva';fill:#ffffff;stroke-width:0.264583" x="59.373711" y="72.969826" id="tspan2392">BONITOS</tspan></text>
    <path class="cls-1" d="m 29.578869,74.282353 q 7.581161,-0.01567 15.160085,0 a 0.55062471,0.55062471 0 0 1 0.548387,0.546148 c 0,0.816984 -0.3447,2.415139 -2.191308,2.415139 H 31.224028 c -1.846608,0 -2.18907,-1.598155 -2.18907,-2.415139 a 0.54838641,0.54838641 0 0 1 0.543911,-0.546148 z m 12.72704,-13.20604 c 4.214742,3.245552 5.718888,1.965237 8.134026,0.774455 1.851084,-0.910992 2.574059,-1.774981 4.821323,-0.863987 V 57.678556 H 42.310386 v 3.397757 z m 8.228034,-4.393806 0.846083,-3.133637 a 0.76550266,0.76550266 0 0 1 0.407373,-0.514812 l 3.464907,-1.770504 a 0.77893252,0.77893252 0 0 1 0.761026,1.358654 l -3.19631,1.625015 -0.671494,2.435284 0.06044,-0.188018 h 3.693214 a 0.49690523,0.49690523 0 0 1 0.487952,0.49019 v 0 6.325469 c 0,4.107303 -2.238312,7.294658 -6.432908,7.610261 v 5.77932 h 3.256744 c 0.275311,0 0.494666,0.434233 0.494666,0.707307 0,0.273074 -0.223831,0.709545 -0.494666,0.709545 h -7.108879 l 0.107439,-0.114154 a 4.2684607,4.2684607 0 0 0 0.799078,-1.302698 h 0.846081 v -5.761414 c -0.223831,0 -0.447662,-0.02686 -0.671493,-0.05148 a 3.3574678,3.3574678 0 0 0 -0.237261,-0.575246 3.021721,3.021721 0 0 0 0.282027,-0.423041 3.1694496,3.1694496 0 0 0 0.223831,-2.518101 5.246603,5.246603 0 0 0 -1.076628,-1.868991 C 45.350019,64.31963 43.543701,63.115419 41.121848,62.457355 v -5.472673 a 0.49466692,0.49466692 0 0 1 0.494667,-0.494667 h 8.973392 l -0.05596,0.188019 z M 44.027171,69.469982 H 30.474193 a 1.5668183,1.5668183 0 0 1 -1.566818,-1.566818 v 0 c 0,-2.238312 4.443049,-3.852135 8.176553,-3.887947 7.341663,-0.07387 10.636458,5.452527 6.938766,5.452527 z m -3.133637,-3.612634 a 0.84384356,0.84384356 0 1 1 -0.841604,0.843842 0.84384356,0.84384356 0 0 1 0.841604,-0.843842 z m -7.3439,0.06043 a 0.84384356,0.84384356 0 1 1 -0.837128,0.843843 0.84384356,0.84384356 0 0 1 0.841604,-0.843843 z m 3.643972,-0.803557 a 0.84384356,0.84384356 0 1 1 -0.843844,0.843844 0.84384356,0.84384356 0 0 1 0.843844,-0.843844 z m 8.053446,6.504535 a 0.25292923,0.25292923 0 0 1 0.03581,0.125345 c 0,0.0291 0,0.06044 0,0.09177 0,0.03133 0,0.06267 0,0.08953 a 0.26188249,0.26188249 0 0 1 -0.03581,0.127583 c -0.123108,0.541672 -0.622252,1.253455 -2.153257,1.253455 H 31.224028 c -1.531006,0 -2.027911,-0.709544 -2.153256,-1.253455 a 0.26188249,0.26188249 0 0 1 -0.03581,-0.127583 c 0,-0.02686 0,-0.05819 0,-0.08953 a 0.64463381,0.64463381 0 0 1 0,-0.09177 0.25292923,0.25292923 0 0 1 0.03581,-0.125345 c 0.125345,-0.543909 0.624489,-1.253454 2.153256,-1.253454 h 6.150881 l 2.276363,2.341274 2.238312,-2.341274 h 1.206449 c 1.531006,0 2.03015,0.709545 2.153257,1.253454 z" id="path79184" style="fill:#ffffff;fill-rule:evenodd;stroke-width:0.223831"/>
    <text xml:space="preserve" style="font-style:normal;font-weight:normal;font-size:22.5778px;line-height:1.25;font-family:sans-serif;fill:#ffffff;fill-opacity:1;stroke:none;stroke-width:0.264583" x="59.373711" y="72.969826" id="text276"><tspan sodipodi:role="line" style="font-style:normal;font-variant:normal;font-weight:normal;font-stretch:normal;font-size:22.5778px;font-family:'Monotype Corsiva';-inkscape-font-specification:'Monotype Corsiva';fill:#ffffff;stroke-width:0.264583" x="59.373711" y="72.969826" id="tspan274">BONITOS</tspan></text>
    <path class="cls-1" d="m 29.578869,74.282353 q 7.581161,-0.01567 15.160085,0 a 0.55062471,0.55062471 0 0 1 0.548387,0.546148 c 0,0.816984 -0.3447,2.415139 -2.191308,2.415139 H 31.224028 c -1.846608,0 -2.18907,-1.598155 -2.18907,-2.415139 a 0.54838641,0.54838641 0 0 1 0.543911,-0.546148 z m 12.72704,-13.20604 c 4.214742,3.245552 5.718888,1.965237 8.134026,0.774455 1.851084,-0.910992 2.574059,-1.774981 4.821323,-0.863987 V 57.678556 H 42.310386 v 3.397757 z m 8.228034,-4.393806 0.846083,-3.133637 a 0.76550266,0.76550266 0 0 1 0.407373,-0.514812 l 3.464907,-1.770504 a 0.77893252,0.77893252 0 0 1 0.761026,1.358654 l -3.19631,1.625015 -0.671494,2.435284 0.06044,-0.188018 h 3.693214 a 0.49690523,0.49690523 0 0 1 0.487952,0.49019 v 0 6.325469 c 0,4.107303 -2.238312,7.294658 -6.432908,7.610261 v 5.77932 h 3.256744 c 0.275311,0 0.494666,0.434233 0.494666,0.707307 0,0.273074 -0.223831,0.709545 -0.494666,0.709545 h -7.108879 l 0.107439,-0.114154 a 4.2684607,4.2684607 0 0 0 0.799078,-1.302698 h 0.846081 v -5.761414 c -0.223831,0 -0.447662,-0.02686 -0.671493,-0.05148 a 3.3574678,3.3574678 0 0 0 -0.237261,-0.575246 3.021721,3.021721 0 0 0 0.282027,-0.423041 3.1694496,3.1694496 0 0 0 0.223831,-2.518101 5.246603,5.246603 0 0 0 -1.076628,-1.868991 C 45.350019,64.31963 43.543701,63.115419 41.121848,62.457355 v -5.472673 a 0.49466692,0.49466692 0 0 1 0.494667,-0.494667 h 8.973392 l -0.05596,0.188019 z M 44.027171,69.469982 H 30.474193 a 1.5668183,1.5668183 0 0 1 -1.566818,-1.566818 v 0 c 0,-2.238312 4.443049,-3.852135 8.176553,-3.887947 7.341663,-0.07387 10.636458,5.452527 6.938766,5.452527 z m -3.133637,-3.612634 a 0.84384356,0.84384356 0 1 1 -0.841604,0.843842 0.84384356,0.84384356 0 0 1 0.841604,-0.843842 z m -7.3439,0.06043 a 0.84384356,0.84384356 0 1 1 -0.837128,0.843843 0.84384356,0.84384356 0 0 1 0.841604,-0.843843 z m 3.643972,-0.803557 a 0.84384356,0.84384356 0 1 1 -0.843844,0.843844 0.84384356,0.84384356 0 0 1 0.843844,-0.843844 z m 8.053446,6.504535 a 0.25292923,0.25292923 0 0 1 0.03581,0.125345 c 0,0.0291 0,0.06044 0,0.09177 0,0.03133 0,0.06267 0,0.08953 a 0.26188249,0.26188249 0 0 1 -0.03581,0.127583 c -0.123108,0.541672 -0.622252,1.253455 -2.153257,1.253455 H 31.224028 c -1.531006,0 -2.027911,-0.709544 -2.153256,-1.253455 a 0.26188249,0.26188249 0 0 1 -0.03581,-0.127583 c 0,-0.02686 0,-0.05819 0,-0.08953 a 0.64463381,0.64463381 0 0 1 0,-0.09177 0.25292923,0.25292923 0 0 1 0.03581,-0.125345 c 0.125345,-0.543909 0.624489,-1.253454 2.153256,-1.253454 h 6.150881 l 2.276363,2.341274 2.238312,-2.341274 h 1.206449 c 1.531006,0 2.03015,0.709545 2.153257,1.253454 z" id="path278" style="fill:#ffffff;fill-rule:evenodd;stroke-width:0.223831"/>
  </g>
</svg>